<svg xmlns="http://www.w3.org/2000/svg">
    <symbol id="icon-insta-header" viewBox="0 0 48 48" fill="none">
        <rect width="48" height="48" rx="24" fill="#E3F2FD"></rect>
        <path fill-rule="evenodd" clip-rule="evenodd" d="M15.0519 15.2222C16.1184 14.0779 17.6372 13.4375 19.4307 13.4375H28.5683C30.3659 13.4375 31.8854 14.0776 32.9515 15.2225C34.0114 16.3608 34.5625 17.9321 34.5625 19.6952V28.3047C34.5625 30.0679 34.0114 31.6392 32.9513 32.7776C31.885 33.9225 30.3652 34.5625 28.5672 34.5625H19.4307C17.633 34.5625 16.1137 33.9224 15.048 32.7775C13.9883 31.6391 13.4375 30.0678 13.4375 28.3047V19.6952C13.4375 17.9312 13.9913 16.36 15.0519 15.2222ZM16.2406 16.3301C15.5069 17.1172 15.0625 18.2686 15.0625 19.6952V28.3047C15.0625 29.7324 15.5052 30.8836 16.2374 31.6702C16.9635 32.4503 18.0345 32.9375 19.4307 32.9375H28.5672C29.964 32.9375 31.0356 32.4502 31.7621 31.6701C32.4946 30.8835 32.9375 29.7322 32.9375 28.3047V19.6952C32.9375 18.2677 32.4946 17.1165 31.7622 16.3298C31.0358 15.5497 29.9644 15.0625 28.5683 15.0625H19.4307C18.0398 15.0625 16.9683 15.5494 16.2406 16.3301Z" fill="#004BA0"></path>
        <path fill-rule="evenodd" clip-rule="evenodd" d="M23.8317 21.375C22.1849 21.375 20.8496 22.7104 20.8496 24.3571C20.8496 26.0038 22.1849 27.3392 23.8317 27.3392C25.4785 27.3392 26.8138 26.0038 26.8138 24.3571C26.8138 22.7104 25.4785 21.375 23.8317 21.375ZM19.2246 24.3571C19.2246 21.8129 21.2875 19.75 23.8317 19.75C26.3759 19.75 28.4388 21.8129 28.4388 24.3571C28.4388 26.9013 26.3759 28.9642 23.8317 28.9642C21.2875 28.9642 19.2246 26.9013 19.2246 24.3571Z" fill="#004BA0"></path>
        <path fill-rule="evenodd" clip-rule="evenodd" d="M28.1484 18.9923C28.1484 18.3736 28.6508 17.8711 29.2697 17.8711C29.8922 17.8711 30.3899 18.3773 30.3899 18.9923C30.3899 19.6112 29.8885 20.1125 29.2697 20.1125C28.6545 20.1125 28.1484 19.6148 28.1484 18.9923Z" fill="#004BA0"></path>
    </symbol>
    <symbol id="icon-tel-header" viewBox="0 0 48 48" fill="none">
        <circle cx="24" cy="24" r="24" fill="#E3F2FD"/>
        <path fill-rule="evenodd" clip-rule="evenodd"
              d="M22.8344 15.0273L23.5798 15.1101C27.6291 15.5598 30.8283 18.7545 31.2824 22.8039L31.366 23.5493L29.8753 23.7164L29.7917 22.9711C29.4158 19.6185 26.767 16.9733 23.4143 16.601L22.6689 16.5182L22.8344 15.0273Z"
              fill="#004BA0"/>
        <path fill-rule="evenodd" clip-rule="evenodd"
              d="M22.9042 18.5195L23.6405 18.6625C25.712 19.0649 27.3303 20.6848 27.7336 22.7554L27.877 23.4915L26.4047 23.7783L26.2613 23.0422C25.9747 21.5708 24.825 20.4207 23.3545 20.135L22.6182 19.992L22.9042 18.5195Z"
              fill="#004BA0"/>
        <path fill-rule="evenodd" clip-rule="evenodd"
              d="M15.7281 14.8634L19.655 20.2575L17.9301 23.2532C17.9914 23.4341 18.09 23.6944 18.2368 24.0043C18.5363 24.6361 19.0311 25.4627 19.8107 26.2422C20.6365 27.0681 21.5128 27.6095 22.1835 27.944C22.5171 28.1104 22.797 28.2242 22.9901 28.2954L25.9773 26.5754L31.5151 30.6589L31.1919 31.2362C30.2666 32.8896 29.0854 34.0708 27.432 34.9961L27.2772 35.0828L27.1 35.0909C22.2213 35.3142 18.0263 32.6613 15.2032 29.3777C13.7867 27.7303 12.6919 25.8991 12.0106 24.1366C11.3343 22.3873 11.0409 20.6409 11.3126 19.1879L11.3364 19.0605L11.4016 18.9485C12.3364 17.3423 13.5432 16.1449 15.1421 15.2071L15.7281 14.8634ZM23.0727 29.1133C22.8744 29.8366 22.8742 29.8366 22.8739 29.8365L22.8723 29.8361L22.8695 29.8353L22.8617 29.8331L22.8374 29.826C22.8175 29.8202 22.7902 29.8119 22.7561 29.801C22.6878 29.7793 22.5919 29.7473 22.4729 29.7034C22.2351 29.6158 21.9035 29.4806 21.514 29.2863C20.7367 28.8986 19.7168 28.2697 18.7501 27.3029C17.8217 26.3745 17.2358 25.3945 16.8814 24.6467C16.7038 24.272 16.583 23.9528 16.5056 23.7234C16.4669 23.6085 16.4389 23.5158 16.4201 23.4494C16.4106 23.4163 16.4035 23.3896 16.3984 23.3701L16.3923 23.3461L16.3903 23.3382L16.3896 23.3353L16.3894 23.3341C16.3893 23.3339 16.3891 23.3331 17.1187 23.1593L16.3891 23.3331L16.3201 23.0433L17.8692 20.353L15.3283 16.8628C14.2676 17.585 13.4407 18.4629 12.7658 19.5883C12.6016 20.6518 12.8124 22.0507 13.4096 23.5957C14.0254 25.1886 15.0283 26.8736 16.3406 28.3998C18.9381 31.421 22.6558 33.7232 26.8536 33.5992C27.9914 32.936 28.843 32.1367 29.542 31.0677L25.8762 28.3645L23.1759 29.9193L22.8739 29.8365L23.0727 29.1133Z"
              fill="#004BA0"/>
    </symbol>
    <symbol id="icon-user-header" viewBox="0 0 48 48" fill="none">
        <rect width="48" height="48" rx="24" fill="#E3F2FD"/>
        <path fill-rule="evenodd" clip-rule="evenodd"
              d="M24 15.0625C19.0636 15.0625 15.0625 19.0646 15.0625 24C15.0625 28.9364 19.0636 32.9375 24 32.9375C28.9364 32.9375 32.9375 28.9364 32.9375 24C32.9375 19.0646 28.9364 15.0625 24 15.0625ZM13.4375 24C13.4375 18.1672 18.166 13.4375 24 13.4375C29.834 13.4375 34.5625 18.1672 34.5625 24C34.5625 29.8339 29.8339 34.5625 24 34.5625C18.1661 34.5625 13.4375 29.8339 13.4375 24Z"
              fill="#004BA0"/>
        <path fill-rule="evenodd" clip-rule="evenodd"
              d="M20.7254 30.6831C20.0932 31.1778 19.7945 31.8108 19.719 32.3976C19.6618 32.8428 19.2546 33.1571 18.8095 33.0999C18.3645 33.0426 18.0501 32.6354 18.1073 32.1904C18.2342 31.2036 18.7366 30.1759 19.724 29.4033C20.7094 28.6323 22.1184 28.1602 23.9917 28.1602C25.8821 28.1602 27.2995 28.6341 28.2876 29.4119C29.2783 30.1918 29.7744 31.2292 29.8956 32.2243C29.9498 32.6697 29.6327 33.0748 29.1872 33.1291C28.7417 33.1832 28.3367 32.8662 28.2825 32.4207C28.2097 31.8231 27.9135 31.1856 27.2825 30.6888C26.6486 30.1899 25.6143 29.7852 23.9917 29.7852C22.3885 29.7852 21.3595 30.187 20.7254 30.6831Z"
              fill="#004BA0"/>
        <path fill-rule="evenodd" clip-rule="evenodd"
              d="M23.9997 21.1094C22.8221 21.1094 21.8671 22.0642 21.8671 23.2419C21.8671 24.4196 22.8221 25.3744 23.9997 25.3744C25.1774 25.3744 26.1322 24.4196 26.1322 23.2419C26.1322 22.0642 25.1774 21.1094 23.9997 21.1094ZM20.2422 23.2419C20.2422 21.1668 21.9245 19.4844 23.9997 19.4844C26.0748 19.4844 27.7572 21.1668 27.7572 23.2419C27.7572 25.317 26.0748 26.9994 23.9997 26.9994C21.9245 26.9994 20.2422 25.317 20.2422 23.2419Z"
              fill="#004BA0"/>

    </symbol>
    <symbol id="icon-arrow-down" viewBox="0 0 24 24" fill="none">
        <path d="M4.46967 7.96967C4.73594 7.70341 5.1526 7.6792 5.44621 7.89705L5.53033 7.96967L12 14.439L18.4697 7.96967C18.7359 7.70341 19.1526 7.6792 19.4462 7.89706L19.5303 7.96967C19.7966 8.23594 19.8208 8.6526 19.6029 8.94622L19.5303 9.03033L12.5303 16.0303C12.2641 16.2966 11.8474 16.3208 11.5538 16.103L11.4697 16.0303L4.46967 9.03033C4.17678 8.73744 4.17678 8.26257 4.46967 7.96967Z"
              fill="black"/>
    </symbol>

 <symbol id="icon-mouse" viewBox="0 0 36 36" fill="none">
     <path fill-rule="evenodd" clip-rule="evenodd"
           d="M6.83106 13.9458C6.82947 8.0441 11.896 3.375 17.9986 3.375C24.0995 3.375 29.1659 8.0409 29.1676 13.9424L29.1691 22.0541C29.1707 27.9558 24.1042 32.625 18.0016 32.625C11.9007 32.625 6.83416 27.9593 6.83251 22.059L6.83106 13.9458C6.83106 13.9459 6.83106 13.9458 6.83106 13.9458ZM17.9986 5.625C13.0064 5.625 9.07978 9.41487 9.08106 13.9453L9.08251 22.0584C9.08385 26.5875 13.0105 30.375 18.0016 30.375C22.9937 30.375 26.9203 26.5851 26.9191 22.0546L26.9176 13.943C26.9176 13.943 26.9176 13.9431 26.9176 13.943C26.9162 9.41233 22.9895 5.625 17.9986 5.625Z"
           fill="white"/>
     <path class="path" fill-rule="evenodd" clip-rule="evenodd"
           d="M15.2358 16.3842C15.6751 15.9449 16.3873 15.9449 16.8267 16.3842L17.9989 17.5563L19.1722 16.3839C19.6117 15.9447 20.3239 15.945 20.7631 16.3845C21.2023 16.824 21.202 17.5362 20.7625 17.9754L18.7938 19.9428C18.3544 20.3819 17.6424 20.3817 17.203 19.9425L15.2358 17.9751C14.7964 17.5358 14.7964 16.8236 15.2358 16.3842Z"
           fill="white"/>
     <path class="path" fill-rule="evenodd" clip-rule="evenodd"
           d="M17.203 8.91153C17.6424 8.47231 18.3544 8.47218 18.7938 8.91124L20.7625 10.8786C21.202 11.3178 21.2023 12.0301 20.7631 12.4696C20.3239 12.9091 19.6117 12.9093 19.1722 12.4702L17.9989 11.2977L16.8267 12.4699C16.3873 12.9092 15.6751 12.9092 15.2358 12.4699C14.7964 12.0305 14.7964 11.3182 15.2358 10.8789L17.203 8.91153Z"
           fill="white"/>
     <path class="path" fill-rule="evenodd" clip-rule="evenodd"
           d="M18 8.61328C18.6213 8.61328 19.125 9.11697 19.125 9.73828V19.1517C19.125 19.7732 18.6213 20.2767 18 20.2767C17.3787 20.2767 16.875 19.7732 16.875 19.1517V9.73828C16.875 9.11697 17.3787 8.61328 18 8.61328Z"
           fill="white"/>
    </symbol>

    <symbol id="icon-j" viewBox="0 0 36 36" fill="none">
     <path fill-rule="evenodd" clip-rule="evenodd"
           d="M6.83106 13.9458C6.82947 8.0441 11.896 3.375 17.9986 3.375C24.0995 3.375 29.1659 8.0409 29.1676 13.9424L29.1691 22.0541C29.1707 27.9558 24.1042 32.625 18.0016 32.625C11.9007 32.625 6.83416 27.9593 6.83251 22.059L6.83106 13.9458C6.83106 13.9459 6.83106 13.9458 6.83106 13.9458ZM17.9986 5.625C13.0064 5.625 9.07978 9.41487 9.08106 13.9453L9.08251 22.0584C9.08385 26.5875 13.0105 30.375 18.0016 30.375C22.9937 30.375 26.9203 26.5851 26.9191 22.0546L26.9176 13.943C26.9176 13.943 26.9176 13.9431 26.9176 13.943C26.9162 9.41233 22.9895 5.625 17.9986 5.625Z"
           fill="white"/>
     <path class="path" fill-rule="evenodd" clip-rule="evenodd"
           d="M15.2358 16.3842C15.6751 15.9449 16.3873 15.9449 16.8267 16.3842L17.9989 17.5563L19.1722 16.3839C19.6117 15.9447 20.3239 15.945 20.7631 16.3845C21.2023 16.824 21.202 17.5362 20.7625 17.9754L18.7938 19.9428C18.3544 20.3819 17.6424 20.3817 17.203 19.9425L15.2358 17.9751C14.7964 17.5358 14.7964 16.8236 15.2358 16.3842Z"
           fill="white"/>
     <path class="path" fill-rule="evenodd" clip-rule="evenodd"
           d="M17.203 8.91153C17.6424 8.47231 18.3544 8.47218 18.7938 8.91124L20.7625 10.8786C21.202 11.3178 21.2023 12.0301 20.7631 12.4696C20.3239 12.9091 19.6117 12.9093 19.1722 12.4702L17.9989 11.2977L16.8267 12.4699C16.3873 12.9092 15.6751 12.9092 15.2358 12.4699C14.7964 12.0305 14.7964 11.3182 15.2358 10.8789L17.203 8.91153Z"
           fill="white"/>
     <path class="path" fill-rule="evenodd" clip-rule="evenodd"
           d="M18 8.61328C18.6213 8.61328 19.125 9.11697 19.125 9.73828V19.1517C19.125 19.7732 18.6213 20.2767 18 20.2767C17.3787 20.2767 16.875 19.7732 16.875 19.1517V9.73828C16.875 9.11697 17.3787 8.61328 18 8.61328Z"
           fill="white"/>
    </symbol>

    <symbol id="icon-arrow-down" viewBox="0 0 24 24" fill="none">
        <path d="M4.46967 7.96967C4.73594 7.70341 5.1526 7.6792 5.44621 7.89705L5.53033 7.96967L12 14.439L18.4697 7.96967C18.7359 7.70341 19.1526 7.6792 19.4462 7.89706L19.5303 7.96967C19.7966 8.23594 19.8208 8.6526 19.6029 8.94622L19.5303 9.03033L12.5303 16.0303C12.2641 16.2966 11.8474 16.3208 11.5538 16.103L11.4697 16.0303L4.46967 9.03033C4.17678 8.73744 4.17678 8.26257 4.46967 7.96967Z"
              fill="black"/>
    </symbol>
    <symbol id="icon-days" viewBox="0 0 27 27" fill="none">
        <path d="M19.9269 11.0723L16.6058 12.7328L12.1777 9.41171L11.0707 15.5004L14.9453 18.8215L15.4988 23.8031M19.9269 9.41171V23.8031M11.0707 18.8215L8.85664 23.8031M9.41015 9.41171C7.74961 10.5187 6.64258 13.2863 6.64258 13.2863L8.85664 14.3933M13.2848 7.19765C13.872 7.19765 14.4351 6.96438 14.8503 6.54917C15.2655 6.13395 15.4988 5.57079 15.4988 4.98359C15.4988 4.39639 15.2655 3.83323 14.8503 3.41801C14.4351 3.0028 13.872 2.76953 13.2848 2.76953C12.6975 2.76953 12.1344 3.0028 11.7192 3.41801C11.304 3.83323 11.0707 4.39639 11.0707 4.98359C11.0707 5.57079 11.304 6.13395 11.7192 6.54917C12.1344 6.96438 12.6975 7.19765 13.2848 7.19765Z" stroke="#71717A" stroke-width="2.21406" stroke-linecap="round" stroke-linejoin="round"/>
    </symbol>
    <symbol id="icon-days" viewBox="0 0 23 23" fill="none">
        <g clip-path="url(#clip0_1_308)">
            <path d="M16.6051 3.6875H5.53482C3.49684 3.6875 1.84473 5.33961 1.84473 7.3776V16.6028C1.84473 18.6408 3.49684 20.2929 5.53482 20.2929H16.6051C18.6431 20.2929 20.2952 18.6408 20.2952 16.6028V7.3776C20.2952 5.33961 18.6431 3.6875 16.6051 3.6875Z"
                  stroke="#808080" stroke-width="2.21406" stroke-linecap="round"
                  stroke-linejoin="round"/>
            <path d="M1.84473 9.22394H20.2952M7.37987 1.84375V5.53385V1.84375ZM14.7601 1.84375V5.53385V1.84375Z"
                  stroke="#808080" stroke-width="2.21406" stroke-linecap="round"
                  stroke-linejoin="round"/>
        </g>
        <defs>
            <clipPath id="clip0_1_308">
                <rect width="22.1406" height="22.1406" fill="white"/>
            </clipPath>
        </defs>
    </symbol>

    <symbol id="line-between" viewBox="0 0 62 20" fill="none">
        <path d="M54.8868 10L52 7.11325L49.1132 10L52 12.8868L54.8868 10ZM7.11325 10L10 12.8868L12.8868 10L10 7.11325L7.11325 10ZM52 10L52 9.5L10 9.5L10 10L10 10.5L52 10.5L52 10Z"
              fill="#D1AB66"/>
    </symbol>
    <symbol id="icon-next" viewBox="0 0 9 16" fill="none">
        <path d="M0.219671 15.2803C-0.0465959 15.0141 -0.070802 14.5974 0.147052 14.3038L0.219671 14.2197L6.689 7.75L0.219671 1.28033C-0.0465953 1.01406 -0.0708014 0.5974 0.147053 0.303789L0.219671 0.219671C0.485938 -0.0465961 0.902602 -0.0708023 1.19621 0.147052L1.28033 0.219671L8.28033 7.21967C8.5466 7.48594 8.5708 7.9026 8.35295 8.19621L8.28033 8.28033L1.28033 15.2803C0.987438 15.5732 0.512564 15.5732 0.219671 15.2803Z" fill="black"></path>
    </symbol>
    <symbol id="icon-prev" viewBox="0 0 9 16" fill="none">
        <path d="M8.28033 0.21967C8.5466 0.485937 8.5708 0.902601 8.35295 1.19621L8.28033 1.28033L1.811 7.75L8.28033 14.2197C8.5466 14.4859 8.5708 14.9026 8.35295 15.1962L8.28033 15.2803C8.01406 15.5466 7.5974 15.5708 7.30379 15.3529L7.21967 15.2803L0.219671 8.28033C-0.0465955 8.01406 -0.0708017 7.5974 0.147053 7.30379L0.219671 7.21967L7.21967 0.21967C7.51256 -0.0732229 7.98744 -0.0732229 8.28033 0.21967Z" fill="black"></path>
    </symbol>
    <symbol id="icon-circle-arrow" viewBox="0 0 48 48" fill="none">
        <rect width="48" height="48" rx="24" fill="#004BA0"></rect>
        <path d="M28.0303 16.4697C28.2966 16.7359 28.3208 17.1526 28.1029 17.4462L28.0303 17.5303L21.561 24L28.0303 30.4697C28.2966 30.7359 28.3208 31.1526 28.1029 31.4462L28.0303 31.5303C27.7641 31.7966 27.3474 31.8208 27.0538 31.6029L26.9697 31.5303L19.9697 24.5303C19.7034 24.2641 19.6792 23.8474 19.8971 23.5538L19.9697 23.4697L26.9697 16.4697C27.2626 16.1768 27.7374 16.1768 28.0303 16.4697Z" fill="white"></path>
    </symbol>
    <symbol id="icon-service" viewBox="0 0 37 37" fill="none">
        <path d="M26.9564 13.1873C26.7315 13.187 26.5116 13.1214 26.3234 12.9986C26.135 12.8757 25.9865 12.7007 25.8957 12.495C25.6794 11.9959 25.5735 11.456 25.5849 10.9122C25.5964 10.3684 25.7249 9.83345 25.962 9.34387C26.1162 9.01242 26.2303 8.78735 26.295 8.64243C26.2503 8.57306 26.1964 8.50216 26.127 8.4112C25.6574 7.69597 25.1093 7.03561 24.4928 6.44247C24.0434 6.10221 23.5153 5.88134 22.9575 5.80045C22.3997 5.71957 21.8305 5.78138 21.3031 5.97999C20.5462 6.37025 19.8356 6.84445 19.1849 7.39368L11.8774 12.8435C11.7559 12.9346 11.6176 13.0009 11.4705 13.0385C11.3234 13.0762 11.1704 13.0846 11.02 13.0631C10.8697 13.0416 10.7252 12.9908 10.5945 12.9134C10.4638 12.836 10.3497 12.7337 10.2586 12.6122C10.1675 12.4907 10.1012 12.3525 10.0635 12.2054C10.0258 12.0583 10.0175 11.9052 10.039 11.7549C10.0604 11.6046 10.1113 11.46 10.1887 11.3294C10.266 11.1987 10.3684 11.0846 10.4898 10.9935L17.7881 5.54983C18.6054 4.85388 19.5128 4.27153 20.486 3.81856C21.3785 3.48257 22.3416 3.37844 23.2852 3.51594C24.229 3.65346 25.1223 4.02807 25.8819 4.60478C26.6834 5.3089 27.3833 6.1209 27.9616 7.01748C28.1358 7.23141 28.2906 7.46048 28.4241 7.70198C28.5505 7.92312 28.6285 8.16851 28.6532 8.422C28.678 8.67552 28.6487 8.93137 28.5675 9.17275C28.4275 9.58017 28.2536 9.97516 28.0479 10.3537C27.9546 10.5433 27.9035 10.7509 27.8978 10.9622C27.8922 11.1735 27.9323 11.3834 28.0155 11.5778C28.0764 11.7168 28.1094 11.8666 28.1125 12.0184C28.1156 12.1702 28.0888 12.3211 28.0334 12.4626C27.9782 12.604 27.8956 12.7332 27.7905 12.8427C27.6853 12.9523 27.5595 13.04 27.4205 13.1009C27.2732 13.1607 27.1154 13.19 26.9564 13.1873Z" fill="#CFAA65"></path>
        <path d="M26.6508 33.5125H11.1232C10.0516 33.5846 8.97518 33.5089 7.92425 33.2874C7.00206 33.0236 6.16228 32.5292 5.48417 31.8507C4.80605 31.1724 4.31194 30.3323 4.04849 29.4101C3.82832 28.3601 3.75314 27.2848 3.82496 26.2142C3.81594 25.9458 3.82882 25.6773 3.8635 25.411C3.89084 25.1616 3.97096 24.9208 4.09855 24.7046C4.22613 24.4885 4.39829 24.3021 4.60352 24.1577C4.92372 23.9306 5.26198 23.73 5.61485 23.5579L5.78286 23.4639C6.01971 23.3353 6.21706 23.1446 6.3537 22.9125C6.49035 22.6801 6.56114 22.4151 6.55846 22.1456C6.55576 21.8761 6.47967 21.6125 6.3384 21.383C6.19715 21.1534 5.99603 20.9669 5.75665 20.8431C5.3668 20.6615 4.99203 20.449 4.63588 20.2079C4.4268 20.0636 4.25021 19.8771 4.11746 19.6605C3.98471 19.4437 3.89873 19.2017 3.86504 18.9499C3.83233 18.6969 3.81892 18.4418 3.82496 18.1868C3.75036 17.0981 3.82455 16.0041 4.04544 14.9354C4.30892 14.0127 4.80318 13.1724 5.48157 12.4937C6.15997 11.815 7.0001 11.3204 7.9227 11.0566C8.97513 10.8346 10.0532 10.7589 11.1263 10.8315H26.6447C27.7215 10.7583 28.8033 10.8351 29.859 11.0596C30.7785 11.3234 31.6158 11.8167 32.2921 12.4931C32.9686 13.1694 33.4618 14.0067 33.7255 14.9261C33.9472 15.9813 34.0229 17.0617 33.9506 18.1375C33.9599 18.4089 33.946 18.6807 33.909 18.9499C33.8776 19.2015 33.7932 19.4435 33.6617 19.6603C33.5302 19.8771 33.3545 20.0638 33.1459 20.2079C32.8053 20.4453 32.4443 20.6518 32.0667 20.8246C31.8146 20.9433 31.6007 21.13 31.449 21.3637C31.2974 21.5974 31.214 21.8689 31.2085 22.1475C31.2028 22.4261 31.2751 22.7008 31.4172 22.9404C31.5593 23.1801 31.7656 23.3753 32.0127 23.504C32.4082 23.6868 32.7873 23.9028 33.1459 24.1499C33.3534 24.2946 33.5281 24.4811 33.6588 24.6975C33.7894 24.914 33.8731 25.1554 33.9044 25.4064C33.9389 25.6742 33.9519 25.9443 33.9429 26.2142C34.0178 27.2905 33.9415 28.372 33.7163 29.4271C33.4522 30.3467 32.9587 31.1843 32.2821 31.8609C31.6054 32.5374 30.768 33.031 29.8482 33.2951C28.7974 33.513 27.7217 33.5862 26.6508 33.5125ZM6.14674 25.909C6.14674 25.9984 6.14674 26.0924 6.14674 26.2173C6.0951 27.0711 6.13956 27.928 6.27931 28.7719C6.43568 29.3185 6.72878 29.8163 7.13097 30.2183C7.53316 30.6202 8.03117 30.9129 8.57794 31.069C9.42163 31.2102 10.2786 31.2552 11.1324 31.2031H26.6601C27.5166 31.2553 28.3761 31.2103 29.2223 31.069C29.7681 30.9131 30.2653 30.6208 30.6669 30.2198C31.0683 29.8187 31.3612 29.3219 31.5179 28.7765C31.6606 27.9293 31.7056 27.0685 31.652 26.2112C31.652 26.0878 31.652 25.9922 31.652 25.9198C31.5117 25.8381 31.3144 25.7348 31.0353 25.5868C30.4011 25.2686 29.8675 24.781 29.4935 24.1779C29.1197 23.5749 28.9202 22.8799 28.9171 22.1705C28.9163 21.4755 29.1064 20.7937 29.4665 20.1994C29.8268 19.6051 30.3434 19.1212 30.9598 18.8004C31.2959 18.6231 31.5163 18.5105 31.6505 18.4365C31.6505 18.3502 31.6505 18.2592 31.6505 18.139C31.7027 17.2811 31.6579 16.4199 31.5163 15.5721C31.36 15.0271 31.0674 14.531 30.6664 14.1302C30.2654 13.7294 29.769 13.4373 29.2239 13.2812C28.3763 13.1383 27.5151 13.0927 26.657 13.1455H11.1324C10.2771 13.0937 9.41867 13.1381 8.57328 13.2781C8.02622 13.4345 7.52805 13.7278 7.12586 14.1303C6.72365 14.5327 6.4307 15.0311 6.27465 15.5783C6.13504 16.4242 6.09109 17.2832 6.14363 18.139C6.14363 18.2654 6.14363 18.3579 6.14363 18.4288C6.27621 18.5059 6.46428 18.603 6.72636 18.7372C7.35445 19.0412 7.88668 19.5123 8.26459 20.0989C8.64252 20.6857 8.85154 21.3651 8.86874 22.0627C8.88595 22.7603 8.71067 23.4491 8.36213 24.0536C8.01358 24.6581 7.50521 25.155 6.89286 25.4897L6.72948 25.5791L6.14674 25.909Z" fill="#CFAA65"></path>
        <path d="M23.3178 26.3516H14.4609C14.1543 26.3516 13.8602 26.2296 13.6433 26.0129C13.4265 25.7959 13.3047 25.5019 13.3047 25.1953C13.3047 24.8885 13.4265 24.5945 13.6433 24.3776C13.8602 24.1609 14.1543 24.0391 14.4609 24.0391H23.3178C23.6245 24.0391 23.9186 24.1609 24.1354 24.3776C24.3523 24.5945 24.4741 24.8885 24.4741 25.1953C24.4741 25.5019 24.3523 25.7959 24.1354 26.0129C23.9186 26.2296 23.6245 26.3516 23.3178 26.3516Z" fill="#CFAA65"></path>
        <path d="M18.4653 20.3086H14.457C14.1504 20.3086 13.8563 20.1868 13.6394 19.9699C13.4226 19.7531 13.3008 19.459 13.3008 19.1523C13.3008 18.8457 13.4226 18.5516 13.6394 18.3346C13.8563 18.1179 14.1504 17.9961 14.457 17.9961H18.4653C18.772 17.9961 19.0661 18.1179 19.2829 18.3346C19.4998 18.5516 19.6216 18.8457 19.6216 19.1523C19.6216 19.459 19.4998 19.7531 19.2829 19.9699C19.0661 20.1868 18.772 20.3086 18.4653 20.3086Z" fill="#CFAA65"></path>
    </symbol>
    <symbol id="icon-arrow-left" viewBox="0 0 14 26" fill="none">
        <path d="M13.1104 0.356964C13.532 0.789647 13.5704 1.46673 13.2254 1.94384L13.1104 2.08054L2.86734 12.5938L13.1104 23.107C13.532 23.5396 13.5704 24.2167 13.2254 24.6938L13.1104 24.8305C12.6889 25.2632 12.0291 25.3026 11.5643 24.9485L11.4311 24.8305L0.347732 13.4555C-0.0738566 13.0229 -0.112183 12.3458 0.232753 11.8687L0.347732 11.732L11.4311 0.356964C11.8948 -0.118987 12.6467 -0.118987 13.1104 0.356964Z" fill="white"></path>
    </symbol>

    <symbol id="icon-circle-pin" viewBox="0 0 48 48" fill="none">
        <rect width="48" height="48" rx="24" fill="#CFAA65"></rect>
        <path fill-rule="evenodd" clip-rule="evenodd" d="M23.9986 15.75C20.2563 15.75 17.2227 18.7836 17.2227 22.5269C17.2227 24.9304 18.6578 27.3744 20.3447 29.2736C21.177 30.2107 22.0418 30.9823 22.7604 31.5136C23.1205 31.7799 23.4326 31.9775 23.6764 32.1048C23.864 32.2027 23.9658 32.2346 23.9986 32.245C24.0313 32.2346 24.1332 32.2027 24.3207 32.1048C24.5645 31.9775 24.8766 31.7799 25.2368 31.5136C25.9553 30.9823 26.8202 30.2107 27.6525 29.2736C29.3393 27.3744 30.7745 24.9304 30.7745 22.5269C30.7745 18.7836 27.7408 15.75 23.9986 15.75ZM15.7227 22.5269C15.7227 17.9553 19.4278 14.25 23.9986 14.25C28.5694 14.25 32.2745 17.9553 32.2745 22.5269C32.2745 25.4787 30.549 28.2712 28.774 30.2697C27.8754 31.2815 26.9341 32.1241 26.1286 32.7197C25.7267 33.0169 25.3473 33.261 25.0148 33.4345C24.7187 33.5891 24.3466 33.75 23.9986 33.75C23.6506 33.75 23.2785 33.5891 22.9823 33.4345C22.6498 33.261 22.2705 33.0169 21.8686 32.7197C21.0631 32.1241 20.1218 31.2815 19.2232 30.2697C17.4482 28.2712 15.7227 25.4787 15.7227 22.5269ZM20.7395 22.4635C20.7395 20.6635 22.1983 19.2051 23.9988 19.2051C25.7985 19.2051 27.2571 20.6637 27.2571 22.4635C27.2571 24.2628 25.7989 25.7228 23.9988 25.7228C22.1979 25.7228 20.7395 24.263 20.7395 22.4635ZM23.9988 20.7051C23.0264 20.7051 22.2395 21.4923 22.2395 22.4635C22.2395 23.4349 23.0267 24.2228 23.9988 24.2228C24.9697 24.2228 25.7571 23.4351 25.7571 22.4635C25.7571 21.4922 24.9701 20.7051 23.9988 20.7051Z" fill="#FFFEFB"></path>
    </symbol>

    <symbol id="icon-circle-tel" viewBox="0 0 48 48" fill="none">
        <rect width="48" height="48" rx="24" fill="#CFAA65"></rect>
        <path fill-rule="evenodd" clip-rule="evenodd" d="M25.8335 15.0273L26.5789 15.1101C30.6282 15.5598 33.8274 18.7545 34.2815 22.8039L34.3651 23.5493L32.8744 23.7164L32.7908 22.9711C32.4149 19.6185 29.7661 16.9733 26.4134 16.601L25.668 16.5182L25.8335 15.0273Z" fill="#FFFEFB"></path>
        <path fill-rule="evenodd" clip-rule="evenodd" d="M25.9032 18.5195L26.6395 18.6625C28.711 19.0649 30.3293 20.6848 30.7326 22.7554L30.876 23.4915L29.4037 23.7783L29.2603 23.0422C28.9737 21.5708 27.824 20.4207 26.3535 20.135L25.6172 19.992L25.9032 18.5195Z" fill="#FFFEFB"></path>
        <path fill-rule="evenodd" clip-rule="evenodd" d="M18.7271 14.8633L22.6541 20.2574L20.9291 23.2531C20.9904 23.434 21.089 23.6943 21.2358 24.0042C21.5353 24.636 22.0302 25.4626 22.8098 26.2421C23.6356 27.068 24.5119 27.6094 25.1826 27.9439C25.5162 28.1103 25.7961 28.2241 25.9892 28.2953L28.9764 26.5753L34.5142 30.6588L34.191 31.2361C33.2657 32.8895 32.0845 34.0707 30.4311 34.996L30.2763 35.0827L30.0991 35.0908C25.2204 35.3141 21.0253 32.6612 18.2022 29.3776C16.7858 27.7302 15.691 25.899 15.0096 24.1365C14.3333 22.3872 14.0399 20.6408 14.3116 19.1878L14.3354 19.0604L14.4006 18.9484C15.3354 17.3422 16.5422 16.1448 18.1411 15.207L18.7271 14.8633ZM26.0718 29.1132C25.8735 29.8365 25.8733 29.8365 25.873 29.8364L25.8714 29.836L25.8686 29.8352L25.8608 29.833L25.8365 29.8259C25.8166 29.8201 25.7893 29.8118 25.7552 29.8009C25.6869 29.7792 25.591 29.7472 25.472 29.7033C25.2342 29.6157 24.9026 29.4805 24.5131 29.2862C23.7358 28.8985 22.7159 28.2696 21.7491 27.3028C20.8207 26.3744 20.2348 25.3944 19.8804 24.6466C19.7028 24.2719 19.582 23.9527 19.5046 23.7233C19.4659 23.6084 19.4379 23.5157 19.4191 23.4493C19.4097 23.4162 19.4025 23.3895 19.3974 23.37L19.3913 23.346L19.3894 23.3381L19.3887 23.3352L19.3884 23.334C19.3883 23.3338 19.3881 23.333 20.1177 23.1592L19.3881 23.333L19.3191 23.0432L20.8682 20.3529L18.3273 16.8627C17.2666 17.5849 16.4397 18.4628 15.7648 19.5882C15.6006 20.6517 15.8114 22.0506 16.4087 23.5956C17.0245 25.1885 18.0273 26.8735 19.3396 28.3997C21.9371 31.4209 25.6549 33.7231 29.8527 33.5991C30.9905 32.9359 31.8421 32.1366 32.5411 31.0676L28.8753 28.3644L26.175 29.9192L25.873 29.8364L26.0718 29.1132Z" fill="#FFFEFB"></path>
    </symbol>

    <symbol id="icon-circle-mail" viewBox="0 0 48 48" fill="none">
        <rect width="48" height="48" rx="24" fill="#CFAA65"></rect>
        <path d="M28.431 32.8484H19.567C18.8916 32.8578 18.2211 32.7315 17.5954 32.4772C16.9696 32.2228 16.4013 31.8454 15.924 31.3674C15.3759 30.8003 14.9456 30.1301 14.6583 29.3956C14.371 28.6611 14.2322 27.8769 14.25 27.0884V20.9114C14.2061 20.1793 14.3107 19.4458 14.5576 18.7551C14.8044 18.0645 15.1885 17.4309 15.6866 16.8925C16.1847 16.3541 16.7866 15.9221 17.4561 15.6223C18.1255 15.3226 18.8486 15.1614 19.582 15.1484H28.418C29.1514 15.1614 29.8745 15.3226 30.544 15.6223C31.2134 15.9221 31.8153 16.3541 32.3134 16.8925C32.8115 17.4309 33.1956 18.0645 33.4424 18.7551C33.6893 19.4458 33.794 20.1793 33.75 20.9114V27.0884C33.7673 27.8762 33.6283 28.6597 33.3409 29.3935C33.0536 30.1272 32.6237 30.7968 32.076 31.3634C31.5988 31.8423 31.0303 32.2205 30.4041 32.4756C29.778 32.7307 29.107 32.8575 28.431 32.8484ZM19.58 31.3484H28.429C28.9081 31.3567 29.384 31.2687 29.8284 31.0895C30.2728 30.9104 30.6767 30.6437 31.016 30.3054C31.4241 29.8773 31.7432 29.3726 31.955 28.8204C32.1668 28.2682 32.2671 27.6796 32.25 27.0884V20.9114C32.25 18.4414 30.639 16.6484 28.418 16.6484H19.582C17.361 16.6484 15.75 18.4414 15.75 20.9114V27.0884C15.7334 27.6789 15.834 28.2668 16.0457 28.8183C16.2575 29.3697 16.5764 29.8738 16.984 30.3014C17.3231 30.6395 17.7266 30.9061 18.1707 31.0852C18.6147 31.2644 19.0902 31.3525 19.569 31.3444L19.58 31.3484Z" fill="#FFFEFB"></path>
        <path d="M24.0253 25.6173C23.3889 25.617 22.7715 25.4005 22.2743 25.0033L18.2363 21.7483C18.0814 21.6234 17.9825 21.4421 17.9613 21.2442C17.9401 21.0464 17.9984 20.8482 18.1233 20.6933C18.2482 20.5384 18.4295 20.4395 18.6274 20.4183C18.8252 20.3971 19.0234 20.4554 19.1783 20.5803L23.2113 23.8323C23.4435 24.0179 23.732 24.1191 24.0293 24.1191C24.3266 24.1191 24.6151 24.0179 24.8473 23.8323L28.8393 20.5863C28.9937 20.4607 29.1916 20.4016 29.3895 20.422C29.5875 20.4423 29.7692 20.5405 29.8948 20.6948C30.0204 20.8492 30.0795 21.0471 30.0592 21.2451C30.0388 21.443 29.9407 21.6247 29.7863 21.7503L25.7863 25.0023C25.2858 25.4006 24.665 25.6174 24.0253 25.6173Z" fill="#FFFEFB"></path>
    </symbol>

    <symbol id="icon-youtube" viewBox="0 0 27 27" fill="none">
        <g clip-path="url(#clip0_215_3271)">
            <path d="M25.4395 5.91154C24.7189 4.6296 23.9367 4.39381 22.3443 4.30414C20.7535 4.1962 16.7532 4.15137 13.2877 4.15137C9.81547 4.15137 5.81356 4.1962 4.22442 4.30248C2.63528 4.39381 1.85151 4.62794 1.12419 5.91154C0.381925 7.19182 0 9.39702 0 13.2794C0 13.2827 0 13.2844 0 13.2844C0 13.2877 0 13.2893 0 13.2893V13.2927C0 17.1584 0.381925 19.3802 1.12419 20.6472C1.85151 21.9291 2.63362 22.1616 4.22276 22.2696C5.81356 22.3625 9.81547 22.4173 13.2877 22.4173C16.7532 22.4173 20.7535 22.3625 22.3459 22.2712C23.9384 22.1633 24.7205 21.9308 25.4412 20.6489C26.1901 19.3819 26.5687 17.1601 26.5687 13.2943C26.5687 13.2943 26.5687 13.2893 26.5687 13.286C26.5687 13.286 26.5687 13.2827 26.5687 13.281C26.5687 9.39702 26.1901 7.19182 25.4395 5.91154ZM9.96326 18.266V8.30273L18.266 13.2844L9.96326 18.266Z" fill="#CFAA65"></path>
        </g>
        <defs>
            <clipPath id="clip0_215_3271">
                <rect width="26.5687" height="26.5687" fill="white"></rect>
            </clipPath>
        </defs>
    </symbol>

    <symbol id="icon-x" viewBox="0 0 27 27" fill="none">
        <g clip-path="url(#clip0_215_3267)">
            <path d="M26.5687 5.0463C25.5807 5.4797 24.5279 5.76697 23.4303 5.90646C24.5594 5.23228 25.4213 4.17285 25.8264 2.8959C24.7737 3.52358 23.6113 3.96695 22.3725 4.21437C21.3729 3.14996 19.9481 2.49072 18.3938 2.49072C15.3783 2.49072 12.9506 4.93836 12.9506 7.93897C12.9506 8.37071 12.9871 8.78584 13.0768 9.18105C8.54848 8.9602 4.54159 6.78987 1.84985 3.48373C1.37991 4.29905 1.10426 5.23228 1.10426 6.23691C1.10426 8.12329 2.07568 9.79545 3.52367 10.7636C2.64857 10.7469 1.79007 10.4929 1.06275 10.0927C1.06275 10.1093 1.06275 10.1309 1.06275 10.1525C1.06275 12.7994 2.95079 14.9979 5.42666 15.5044C4.98329 15.6256 4.50007 15.6837 3.99859 15.6837C3.64987 15.6837 3.29784 15.6638 2.96739 15.5908C3.67312 17.7478 5.67574 19.3336 8.05696 19.3851C6.20379 20.8347 3.8508 21.7082 1.30353 21.7082C0.856841 21.7082 0.42842 21.6883 0 21.6335C2.41277 23.1894 5.27223 24.0778 8.35586 24.0778C18.3789 24.0778 23.8587 15.7751 23.8587 8.57828C23.8587 8.3375 23.8504 8.10502 23.8388 7.87421C24.9198 7.10703 25.8281 6.1489 26.5687 5.0463Z" fill="#CFAA65"></path>
        </g>
        <defs>
            <clipPath id="clip0_215_3267">
                <rect width="26.5687" height="26.5687" fill="white"></rect>
            </clipPath>
        </defs>
    </symbol>
    <symbol id="icon-instagram" viewBox="0 0 27 27" fill="none">
        <g clip-path="url(#clip0_215_3264)">
            <path d="M25.5667 1.00341C24.8979 0.334369 24.0964 0 23.1626 0H3.40882C2.47472 0 1.67343 0.33449 1.00439 1.00341C0.335467 1.67215 0.00109863 2.47356 0.00109863 3.40748V23.161C0.00109863 24.0948 0.335407 24.8964 1.00439 25.5652C1.67343 26.2341 2.4749 26.5687 3.40882 26.5687H23.1623C24.0959 26.5687 24.8977 26.2341 25.5666 25.5652C26.2356 24.8964 26.5697 24.0948 26.5697 23.161V3.40748C26.5696 2.47338 26.2356 1.67239 25.5667 1.00341ZM9.54087 9.57394C10.5844 8.56508 11.8385 8.06041 13.303 8.06041C14.7789 8.06041 16.0386 8.56508 17.0824 9.57394C18.1261 10.583 18.6477 11.8026 18.6477 13.2324C18.6477 14.6621 18.1261 15.8817 17.0824 16.8905C16.0386 17.8998 14.7793 18.4044 13.303 18.4044C11.8386 18.4044 10.5846 17.8994 9.54087 16.8905C8.49711 15.8816 7.97529 14.6621 7.97529 13.2324C7.97529 11.8026 8.49711 10.583 9.54087 9.57394ZM23.5604 22.4521C23.5604 22.7517 23.4563 23.0024 23.249 23.2044C23.041 23.4061 22.7934 23.507 22.5048 23.507H4.01431C3.71453 23.507 3.46353 23.4061 3.2619 23.2044C3.05997 23.0028 2.9591 22.7517 2.9591 22.4521V11.2431H5.39795C5.16742 11.9697 5.05213 12.7251 5.05213 13.5091C5.05213 15.7236 5.85924 17.6116 7.47365 19.1744C9.08824 20.7367 11.0313 21.5182 13.303 21.5182C14.8021 21.5182 16.1858 21.1605 17.4547 20.4456C18.7231 19.7303 19.7257 18.759 20.4643 17.5308C21.2024 16.3026 21.5714 14.9619 21.5714 13.5091C21.5714 12.7252 21.4557 11.9699 21.2252 11.2431H23.5605V22.4522H23.5604V22.4521ZM23.5604 7.0052C23.5604 7.33963 23.4451 7.6222 23.2141 7.85278C22.9836 8.08355 22.7012 8.19878 22.3666 8.19878H19.357C19.0227 8.19878 18.7399 8.08349 18.5094 7.85278C18.2788 7.6222 18.1636 7.33963 18.1636 7.0052V4.1514C18.1636 3.82849 18.2788 3.54889 18.5094 3.31242C18.74 3.07608 19.0228 2.95776 19.357 2.95776H22.3666C22.7012 2.95776 22.9836 3.07602 23.2141 3.31242C23.4451 3.54889 23.5604 3.82849 23.5604 4.1514V7.0052Z"
                  fill="#CFAA65"/>
        </g>
        <defs>
            <clipPath id="clip0_215_3264">
                <rect width="26.5687" height="26.5687" fill="white"/>
            </clipPath>
        </defs>
    </symbol>
    <symbol id="icon-facebook" viewBox="0 0 27 27" fill="none">
        <g clip-path="url(#clip0_215_3262)">
            <path d="M24.6525 0H1.91615C0.857839 0 0 0.857839 0 1.91615V24.6525C0 25.7109 0.857839 26.5687 1.91615 26.5687H14.1925V16.2941H10.7416V12.2725H14.1925V9.31279C14.1925 5.88062 16.2878 4.01251 19.3494 4.01251C20.8158 4.01251 22.076 4.12176 22.4433 4.17062V7.75785H20.3321C18.6663 7.75785 18.3438 8.54941 18.3438 9.7111V12.2725H22.3265L21.8076 16.2941H18.3438V26.5687H24.6525C25.7109 26.5687 26.5687 25.7109 26.5687 24.6525V1.91615C26.5687 0.857839 25.7109 0 24.6525 0V0Z"
                  fill="#CFAA65"/>
        </g>
        <defs>
            <clipPath id="clip0_215_3262">
                <rect width="26.5687" height="26.5687" fill="white"/>
            </clipPath>
        </defs>
    </symbol>

    <symbol id="icon-circle-next" viewBox="0 0 48 48" fill="none">
        <rect width="48" height="48" rx="24" fill="white"></rect>
        <path d="M19.9697 31.5303C19.7034 31.2641 19.6792 30.8474 19.8971 30.5538L19.9697 30.4697L26.439 24L19.9697 17.5303C19.7034 17.2641 19.6792 16.8474 19.8971 16.5538L19.9697 16.4697C20.2359 16.2034 20.6526 16.1792 20.9462 16.3971L21.0303 16.4697L28.0303 23.4697C28.2966 23.7359 28.3208 24.1526 28.1029 24.4462L28.0303 24.5303L21.0303 31.5303C20.7374 31.8232 20.2626 31.8232 19.9697 31.5303Z" fill="#18181B"></path>
    </symbol>
    <symbol id="icon-circle-prev" viewBox="0 0 48 48" fill="none">
        <rect width="48" height="48" rx="24" fill="white"/>
        <path d="M28.0303 16.4697C28.2966 16.7359 28.3208 17.1526 28.1029 17.4462L28.0303 17.5303L21.561 24L28.0303 30.4697C28.2966 30.7359 28.3208 31.1526 28.1029 31.4462L28.0303 31.5303C27.7641 31.7966 27.3474 31.8208 27.0538 31.6029L26.9697 31.5303L19.9697 24.5303C19.7034 24.2641 19.6792 23.8474 19.8971 23.5538L19.9697 23.4697L26.9697 16.4697C27.2626 16.1768 27.7374 16.1768 28.0303 16.4697Z"
              fill="#18181B"/>
    </symbol>
    <symbol id="icon-kama" viewBox="0 0 110 88" fill="none">
        <path d="M110 52.799C110 49.3119 109.049 46.153 108.025 43.0761C107.001 39.9993 104.748 35.384 101.266 29.2302C97.5786 22.8714 91.6386 13.128 83.4455 0L65.6254 11.9998L70.8485 19.6919C76.9934 28.9225 80.7827 34.8711 82.2165 37.5378C75.662 38.1531 70.234 40.8198 65.9326 45.5376C61.4264 50.2555 59.1733 55.8964 59.1733 62.4604C59.1733 69.4346 61.6312 75.4858 66.5471 80.6139C71.463 85.5369 77.3006 87.9984 84.0599 87.9984C91.2289 87.9984 97.2714 85.5369 102.187 80.6139C107.103 75.6909 110 69.6582 110 62.4788V57.1989V52.799Z"
              fill="#CFAA65"/>
        <path d="M50.388 52.9237C50.388 49.4366 49.8759 46.1546 48.8518 43.0778C47.8276 40.0009 45.5745 35.3856 42.0925 29.2319C38.4056 22.873 32.4655 13.1296 24.2723 0.00163018L6.45216 12.0014L11.6753 19.6936C17.8202 28.9242 21.6096 34.8728 23.0434 37.5394C16.4888 38.1548 11.0608 40.8214 6.75942 45.5392C2.2532 50.2571 0 55.898 0 62.462C0 69.4362 2.45803 75.4874 7.37391 80.6155C12.2898 85.5385 18.1275 88 24.8868 88C32.0558 88 38.0983 85.5385 43.0142 80.6155C47.9301 75.6925 50.388 69.6414 50.388 62.462V52.9237Z"
              fill="#CFAA65"/>
    </symbol>
    <symbol id="icon-r-slider" viewBox="0 0 24 20" fill="none">
        <path d="M22.7071 10.7071C23.0976 10.3166 23.0976 9.68342 22.7071 9.29289L16.3431 2.92893C15.9526 2.53841 15.3195 2.53841 14.9289 2.92893C14.5384 3.31946 14.5384 3.95262 14.9289 4.34315L20.5858 10L14.9289 15.6569C14.5384 16.0474 14.5384 16.6805 14.9289 17.0711C15.3195 17.4616 15.9526 17.4616 16.3431 17.0711L22.7071 10.7071ZM0 10V11H22V10V9H0V10Z" fill="#E4E4E7"/>
    </symbol>
    <symbol id="icon-l-slider" viewBox="0 0 24 20" fill="none">
        <path d="M0.292893 9.29289C-0.0976314 9.68342 -0.0976315 10.3166 0.292892 10.7071L6.65685 17.0711C7.04738 17.4616 7.68054 17.4616 8.07107 17.0711C8.46159 16.6805 8.46159 16.0474 8.07107 15.6569L2.41421 10L8.07107 4.34314C8.46159 3.95262 8.46159 3.31946 8.07107 2.92893C7.68054 2.53841 7.04738 2.53841 6.65686 2.92893L0.292893 9.29289ZM22 10L22 9L1 9L1 10L1 11L22 11L22 10Z" fill="#E4E4E7"/>
    </symbol>
    <symbol id="icon-time-white" viewBox="0 0 24 24" fill="none">
        <path fill-rule="evenodd" clip-rule="evenodd"
              d="M12 2C17.514 2 22 6.486 22 12C22 17.514 17.514 22 12 22C6.486 22 2 17.514 2 12C2 6.486 6.486 2 12 2ZM12 3.5C7.313 3.5 3.5 7.313 3.5 12C3.5 16.687 7.313 20.5 12 20.5C16.687 20.5 20.5 16.687 20.5 12C20.5 7.313 16.687 3.5 12 3.5ZM11.6612 7.0954C12.0762 7.0954 12.4112 7.4314 12.4112 7.8454V12.2674L15.8162 14.2974C16.1712 14.5104 16.2882 14.9704 16.0762 15.3264C15.9352 15.5614 15.6862 15.6924 15.4312 15.6924C15.3002 15.6924 15.1682 15.6584 15.0472 15.5874L11.2772 13.3384C11.0512 13.2024 10.9112 12.9574 10.9112 12.6934V7.8454C10.9112 7.4314 11.2472 7.0954 11.6612 7.0954Z"
              fill="white"/>
    </symbol>
    <symbol id="icon-date-white" viewBox="0 0 24 24" fill="none">
        <path d="M4.16016 9.66406H17.1666" stroke="white" stroke-width="1.5"
              stroke-linecap="round" stroke-linejoin="round"/>
        <path d="M15.8145 3V5.96174" stroke="white" stroke-width="1.5"
              stroke-linecap="round" stroke-linejoin="round"/>
        <path d="M8.54395 3V5.96174" stroke="white" stroke-width="1.5"
              stroke-linecap="round" stroke-linejoin="round"/>
        <path d="M15.9903 4.42188C18.6416 4.42188 20.284 5.89399 20.2762 8.59984V16.8137C20.2762 19.5205 18.6338 21.0004 15.9825 21.0004H8.36992C5.72634 21.0004 4.07617 19.4943 4.07617 16.7456V8.59984C4.07617 6.86903 4.75135 5.64301 5.92982 4.98418"
              stroke="white" stroke-width="1.5" stroke-linecap="round"
              stroke-linejoin="round"/>
        <path d="M8.55078 4.42188H13.257" stroke="white" stroke-width="1.5"
              stroke-linecap="round" stroke-linejoin="round"/>
        <path d="M8.14648 14.9688H8.15648" stroke="white" stroke-width="1.5"
              stroke-linecap="round" stroke-linejoin="round"/>
        <path d="M12.166 14.9688H12.176" stroke="white" stroke-width="1.5"
              stroke-linecap="round" stroke-linejoin="round"/>
        <path d="M16.1758 14.9688H16.1858" stroke="white" stroke-width="1.5"
              stroke-linecap="round" stroke-linejoin="round"/>
    </symbol>
    <symbol id="icon-user-white" viewBox="0 0 24 24" fill="none">
        <path fill-rule="evenodd" clip-rule="evenodd"
              d="M12 3.75C7.44329 3.75 3.75 7.44329 3.75 12C3.75 16.5558 7.44335 20.25 12 20.25C16.5567 20.25 20.25 16.5558 20.25 12C20.25 7.44329 16.5567 3.75 12 3.75ZM2.25 12C2.25 6.61487 6.61487 2.25 12 2.25C17.3851 2.25 21.75 6.61487 21.75 12C21.75 17.3841 17.3852 21.75 12 21.75C6.61481 21.75 2.25 17.3841 2.25 12Z"
              fill="white"/>
        <path fill-rule="evenodd" clip-rule="evenodd"
              d="M8.63583 17.6968C7.98362 18.2071 7.67389 18.8617 7.5955 19.4702C7.54257 19.881 7.16663 20.1712 6.75581 20.1182C6.34499 20.0653 6.05487 19.6894 6.10779 19.2785C6.23372 18.3011 6.73156 17.2822 7.71151 16.5154C8.6897 15.7501 10.0934 15.2773 11.9695 15.2773C13.8638 15.2773 15.2763 15.752 16.2572 16.5241C17.2406 17.2982 17.7318 18.327 17.8513 19.3133C17.9012 19.7245 17.6082 20.0983 17.197 20.1481C16.7858 20.198 16.4121 19.905 16.3622 19.4938C16.2872 18.8747 15.9806 18.2154 15.3294 17.7027C14.6756 17.1881 13.6168 16.7773 11.9695 16.7773C10.3428 16.7773 9.28981 17.1851 8.63583 17.6968Z"
              fill="white"/>
        <path fill-rule="evenodd" clip-rule="evenodd"
              d="M11.9722 7.78125C10.5657 7.78125 9.42578 8.92078 9.42578 10.3267C9.42578 11.7326 10.5657 12.8722 11.9722 12.8722C13.3784 12.8722 14.5177 11.7329 14.5177 10.3267C14.5177 8.92049 13.3784 7.78125 11.9722 7.78125ZM7.92578 10.3267C7.92578 8.09178 9.73786 6.28125 11.9722 6.28125C14.2069 6.28125 16.0177 8.09206 16.0177 10.3267C16.0177 12.5614 14.2069 14.3722 11.9722 14.3722C9.73786 14.3722 7.92578 12.5616 7.92578 10.3267Z"
              fill="white"/>
    </symbol>


</svg>